<?xml version="1.0" encoding="UTF-8" standalone="no"?>
<svg
   viewBox="-59.07 20.518 1141.325 1141.325"
   width="1141.325"
   height="1141.325"
   version="1.1"
   id="svg66"
   sodipodi:docname="GOD.svg"
   inkscape:version="1.2.2 (b0a8486541, 2022-12-01)"
   inkscape:export-filename="GOD_256.png"
   inkscape:export-xdpi="21.530001"
   inkscape:export-ydpi="21.530001"
   xmlns:inkscape="http://www.inkscape.org/namespaces/inkscape"
   xmlns:sodipodi="http://sodipodi.sourceforge.net/DTD/sodipodi-0.dtd"
   xmlns="http://www.w3.org/2000/svg"
   xmlns:svg="http://www.w3.org/2000/svg">
  <sodipodi:namedview
     id="namedview68"
     pagecolor="#ffffff"
     bordercolor="#000000"
     borderopacity="0.25"
     inkscape:showpageshadow="2"
     inkscape:pageopacity="0.0"
     inkscape:pagecheckerboard="0"
     inkscape:deskcolor="#d1d1d1"
     showgrid="false"
     inkscape:zoom="0.44487315"
     inkscape:cx="483.28383"
     inkscape:cy="597.92325"
     inkscape:window-width="1330"
     inkscape:window-height="736"
     inkscape:window-x="0"
     inkscape:window-y="0"
     inkscape:window-maximized="1"
     inkscape:current-layer="svg66" />
  <defs
     id="defs33">
    <linearGradient
       gradientUnits="userSpaceOnUse"
       x1="504.39099"
       y1="127.343"
       x2="504.39099"
       y2="606.21997"
       id="gradient-0"
       gradientTransform="matrix(2.100022,0.356519,-0.140154,0.825545,-439.23371,31.844565)">
      <stop
         offset="0"
         style="stop-color: rgb(254, 255, 0);"
         id="stop2" />
      <stop
         offset="1"
         style="stop-color: rgb(255, 0, 0);"
         id="stop4" />
    </linearGradient>
    <linearGradient
       gradientUnits="userSpaceOnUse"
       x1="534.57501"
       y1="-141.94299"
       x2="534.57501"
       y2="186.27299"
       id="gradient-1"
       gradientTransform="matrix(2.126136,-0.129415,0.139432,2.290835,-690.08651,615.14066)"
       spreadMethod="pad">
      <stop
         offset="0"
         style="stop-color: rgb(255, 234, 5);"
         id="stop7" />
      <stop
         offset="0.158"
         style="stop-color: rgb(76, 0, 179);"
         id="stop9" />
      <stop
         offset="0.863"
         style="stop-color: rgb(76, 0, 179);"
         id="stop11" />
      <stop
         offset="1"
         style="stop-color: rgb(255, 8, 8);"
         id="stop13" />
    </linearGradient>
    <filter
       id="inner-shadow-filter-0"
       color-interpolation-filters="sRGB"
       x="-0.16812749"
       y="-0.11028752"
       width="1.336255"
       height="1.220575">
      <feOffset
         dx="0"
         dy="0"
         id="feOffset16" />
      <feGaussianBlur
         stdDeviation="22"
         id="feGaussianBlur18"
         result="result1" />
      <feComposite
         operator="out"
         in="SourceGraphic"
         in2="result1"
         id="feComposite20" />
      <feComponentTransfer
         result="choke"
         id="feComponentTransfer24">
        <feFuncA
           type="linear"
           slope="1.9"
           id="feFuncA22" />
      </feComponentTransfer>
      <feFlood
         flood-color="#00ffe9"
         result="color"
         id="feFlood26" />
      <feComposite
         operator="in"
         in="color"
         in2="choke"
         result="shadow"
         id="feComposite28" />
      <feComposite
         operator="over"
         in="shadow"
         in2="SourceGraphic"
         id="feComposite30" />
    </filter>
  </defs>
  <!-- Ellipse avec dégradé en stroke et fond noir -->
  <ellipse
     style="fill:#000000;stroke:url(#gradient-1);stroke-width:100;stroke-miterlimit:4.02;stroke-dasharray:none;paint-order:stroke"
     cx="504.035"
     cy="580.935"
     rx="379.78699"
     ry="349.56201"
     id="object-0" />
  <!-- Main gauche -->
  <g
     style="filter:url(#inner-shadow-filter-0)"
     id="g48"
     transform="translate(-24.255728,4.9300535)">
    <path
       d="m 253.605,711.508 17.542,49.704 14.223,23.254 c 8.957,-0.201 48.688,29.843 63.559,49.86 29.185,44.504 45.21823,58.39345 56.73423,72.08845 C 361.42336,896.16997 303.82743,871.63542 274.895,840.792 c 0.595,1.317 -45.594,-33.685 -62.706,-71.493 7.125,12.876 -16.492,-61.676 -21.918,-71.482 -2.828,-11.879 2,-30.936 26.795,-20.453 29.172,19.692 28.445,22.78 36.539,34.144 z"
       style="fill:#4c00b3"
       id="path36"
       sodipodi:nodetypes="cccccccccc" />
    <path
       d="m 361.629,1134.03 c -22.281,-42.94 8.382,-137.959 18.051,-142.947 l -14.456,1.974 c -15.48,3.766 -36.126,-0.923 -61.939,-14.068 L 255.196,950.818 236.22,928.979 c -10.015,-9.177 -21.022,-94.163 -0.191,-90.645 -0.338,-0.761 14.822,5.048 16.334,8.445 6.369,22.84 13.062,47.396 26.406,64.558 3.744,5.045 17.315,5.837 41.689,3.414 24.404,-3.542 46.102,-3.767 62.31,7.921 19.78,9.628 24.12081,19.75588 37.63437,24.67194 C 427.50586,996.72347 371.557,1153.16 361.629,1134.03 Z"
       style="fill:#4c00b3"
       id="path38"
       sodipodi:nodetypes="ccccccccccccc" />
    <path
       d="m 223.922,955.263 -17.719,3.669 c -28.524,-6.039 18.701,192.958 66.535,194.138 -20.41,0.9 -39.406,-183.071 -20.646,-181.695 z"
       style="fill:#4c00b3"
       id="path40" />
    <path
       d="m 172.591,738.295 c -4.184,-4.126 -14.045,-3.619 -14.988,-0.915 -9.626,4.391 -18.191,39.449 -18.014,60.459 -6.424,21.382 27.561,73.601 31.608,68.073 l -2.986,-45.529 c 3.752,-7.46 3.418,-23.172 15.755,-50.171 4.773,-10.439 -1.12,-19.088 -11.375,-31.917 z"
       style="fill:#4c00b3"
       id="path42" />
    <path
       d="m 200.467,789.139 c -8.952,-1.096 -7.335,0.609 -11.865,3.531 -14.419,37.598 -12.08,57.611 -1.177,87.679 10.582,25.483 37.721,42.527 37.939,39.688 l -14.387,-54.076 6.498,-38.762 4.722,-14.628 c -0.805,-8.928 -6.683,-18.738 -21.73,-23.432 z"
       style="fill:#4c00b3"
       id="path44" />
    <path
       d="m 141.691,734.379 -10.254,39.854 -4.518,39.247 c -1.985,11.514 -21.59,-26.147 -19.468,-51.439 -1.788,-49.575 1.022,-42.575 16.266,-76.795 l 13.515,-3.573 c 1.729,0.855 3.359,1.726 4.872,2.613 8.741,3.399 13.869,19.502 11.845,22.541 z"
       style="fill:#4c00b3"
       id="path46" />
  </g>
  <!-- Main droite -->
  <!-- Éclair principal avec dégradé -->
  <path
     d="M 542.584,413.149 717.876,380.335 604.838,564.671 720.462,532.652 540.126,760.35 l -1.182,91.444 51.543,0.007 -87.021,154.907 -86.982,-154.929 49.646,0.007 -2.081,-91.238 67.061,-94.447 -144.964,60.27 87.707,-163.538 -218.245,21.282 403.791,-548.953002 z"
     style="fill:url(#gradient-0);stroke-width:1"
     id="object-1" />
  <!-- Éclair jaune interne -->
  <polygon
     style="fill:#fff972"
     points="336.38,540.715 524.075,509.699 460.371,665.077 603.823,436.572 446.67,455.133 575.595,189.908 "
     id="object-2"
     transform="translate(3.5902894,-3.7329561)" />
  <g
     style="filter:url(#inner-shadow-filter-0)"
     id="g1161"
     transform="matrix(-1,0,0,1,1031.7442,4.9300535)">
    <path
       d="m 253.605,711.508 17.542,49.704 14.223,23.254 c 8.957,-0.201 48.688,29.843 63.559,49.86 29.185,44.504 45.21823,58.39345 56.73423,72.08845 C 361.42336,896.16997 303.82743,871.63542 274.895,840.792 c 0.595,1.317 -45.594,-33.685 -62.706,-71.493 7.125,12.876 -16.492,-61.676 -21.918,-71.482 -2.828,-11.879 2,-30.936 26.795,-20.453 29.172,19.692 28.445,22.78 36.539,34.144 z"
       style="fill:#4c00b3"
       id="path1149"
       sodipodi:nodetypes="cccccccccc" />
    <path
       d="m 361.629,1134.03 c -22.281,-42.94 8.382,-137.959 18.051,-142.947 l -14.456,1.974 c -15.48,3.766 -36.126,-0.923 -61.939,-14.068 L 255.196,950.818 236.22,928.979 c -10.015,-9.177 -21.022,-94.163 -0.191,-90.645 -0.338,-0.761 14.822,5.048 16.334,8.445 6.369,22.84 13.062,47.396 26.406,64.558 3.744,5.045 17.315,5.837 41.689,3.414 24.404,-3.542 46.102,-3.767 62.31,7.921 19.78,9.628 24.12081,19.75588 37.63437,24.67194 C 427.50586,996.72347 371.557,1153.16 361.629,1134.03 Z"
       style="fill:#4c00b3"
       id="path1151"
       sodipodi:nodetypes="ccccccccccccc" />
    <path
       d="m 223.922,955.263 -17.719,3.669 c -28.524,-6.039 18.701,192.958 66.535,194.138 -20.41,0.9 -39.406,-183.071 -20.646,-181.695 z"
       style="fill:#4c00b3"
       id="path1153" />
    <path
       d="m 172.591,738.295 c -4.184,-4.126 -14.045,-3.619 -14.988,-0.915 -9.626,4.391 -18.191,39.449 -18.014,60.459 -6.424,21.382 27.561,73.601 31.608,68.073 l -2.986,-45.529 c 3.752,-7.46 3.418,-23.172 15.755,-50.171 4.773,-10.439 -1.12,-19.088 -11.375,-31.917 z"
       style="fill:#4c00b3"
       id="path1155" />
    <path
       d="m 200.467,789.139 c -8.952,-1.096 -7.335,0.609 -11.865,3.531 -14.419,37.598 -12.08,57.611 -1.177,87.679 10.582,25.483 37.721,42.527 37.939,39.688 l -14.387,-54.076 6.498,-38.762 4.722,-14.628 c -0.805,-8.928 -6.683,-18.738 -21.73,-23.432 z"
       style="fill:#4c00b3"
       id="path1157" />
    <path
       d="m 141.691,734.379 -10.254,39.854 -4.518,39.247 c -1.985,11.514 -21.59,-26.147 -19.468,-51.439 -1.788,-49.575 1.022,-42.575 16.266,-76.795 l 13.515,-3.573 c 1.729,0.855 3.359,1.726 4.872,2.613 8.741,3.399 13.869,19.502 11.845,22.541 z"
       style="fill:#4c00b3"
       id="path1159" />
  </g>
</svg>
